<?xml version="1.0" encoding="utf-8" standalone="no"?>
<!DOCTYPE svg PUBLIC "-//W3C//DTD SVG 1.1//EN"
  "http://www.w3.org/Graphics/SVG/1.1/DTD/svg11.dtd">
<svg xmlns:xlink="http://www.w3.org/1999/xlink" width="397.6075pt" height="297.190125pt" viewBox="0 0 397.6075 297.190125" xmlns="http://www.w3.org/2000/svg" version="1.1">
 <metadata>
  <rdf:RDF xmlns:dc="http://purl.org/dc/elements/1.1/" xmlns:cc="http://creativecommons.org/ns#" xmlns:rdf="http://www.w3.org/1999/02/22-rdf-syntax-ns#">
   <cc:Work>
    <dc:type rdf:resource="http://purl.org/dc/dcmitype/StillImage"/>
    <dc:date>2022-10-13T19:50:01.424678</dc:date>
    <dc:format>image/svg+xml</dc:format>
    <dc:creator>
     <cc:Agent>
      <dc:title>Matplotlib v3.6.0, https://matplotlib.org/</dc:title>
     </cc:Agent>
    </dc:creator>
   </cc:Work>
  </rdf:RDF>
 </metadata>
 <defs>
  <style type="text/css">*{stroke-linejoin: round; stroke-linecap: butt}</style>
 </defs>
 <g id="figure_1">
  <g id="patch_1">
   <path d="M 0 297.190125 
L 397.6075 297.190125 
L 397.6075 0 
L 0 0 
z
" style="fill: #ffffff"/>
  </g>
  <g id="axes_1">
   <g id="patch_2">
    <path d="M 33.2875 273.312 
L 390.4075 273.312 
L 390.4075 7.2 
L 33.2875 7.2 
z
" style="fill: #ffffff"/>
   </g>
   <g id="matplotlib.axis_1">
    <g id="xtick_1">
     <g id="line2d_1">
      <defs>
       <path id="m14028f53f8" d="M 0 0 
L 0 3.5 
" style="stroke: #000000; stroke-width: 0.8"/>
      </defs>
      <g>
       <use xlink:href="#m14028f53f8" x="46.963892" y="273.312" style="stroke: #000000; stroke-width: 0.8"/>
      </g>
     </g>
     <g id="text_1">
      <!-- 0 -->
      <g transform="translate(43.782642 287.910437) scale(0.1 -0.1)">
       <defs>
        <path id="DejaVuSans-30" d="M 2034 4250 
Q 1547 4250 1301 3770 
Q 1056 3291 1056 2328 
Q 1056 1369 1301 889 
Q 1547 409 2034 409 
Q 2525 409 2770 889 
Q 3016 1369 3016 2328 
Q 3016 3291 2770 3770 
Q 2525 4250 2034 4250 
z
M 2034 4750 
Q 2819 4750 3233 4129 
Q 3647 3509 3647 2328 
Q 3647 1150 3233 529 
Q 2819 -91 2034 -91 
Q 1250 -91 836 529 
Q 422 1150 422 2328 
Q 422 3509 836 4129 
Q 1250 4750 2034 4750 
z
" transform="scale(0.015625)"/>
       </defs>
       <use xlink:href="#DejaVuSans-30"/>
      </g>
     </g>
    </g>
    <g id="xtick_2">
     <g id="line2d_2">
      <g>
       <use xlink:href="#m14028f53f8" x="98.090592" y="273.312" style="stroke: #000000; stroke-width: 0.8"/>
      </g>
     </g>
     <g id="text_2">
      <!-- 20 -->
      <g transform="translate(91.728092 287.910437) scale(0.1 -0.1)">
       <defs>
        <path id="DejaVuSans-32" d="M 1228 531 
L 3431 531 
L 3431 0 
L 469 0 
L 469 531 
Q 828 903 1448 1529 
Q 2069 2156 2228 2338 
Q 2531 2678 2651 2914 
Q 2772 3150 2772 3378 
Q 2772 3750 2511 3984 
Q 2250 4219 1831 4219 
Q 1534 4219 1204 4116 
Q 875 4013 500 3803 
L 500 4441 
Q 881 4594 1212 4672 
Q 1544 4750 1819 4750 
Q 2544 4750 2975 4387 
Q 3406 4025 3406 3419 
Q 3406 3131 3298 2873 
Q 3191 2616 2906 2266 
Q 2828 2175 2409 1742 
Q 1991 1309 1228 531 
z
" transform="scale(0.015625)"/>
       </defs>
       <use xlink:href="#DejaVuSans-32"/>
       <use xlink:href="#DejaVuSans-30" x="63.623047"/>
      </g>
     </g>
    </g>
    <g id="xtick_3">
     <g id="line2d_3">
      <g>
       <use xlink:href="#m14028f53f8" x="149.217292" y="273.312" style="stroke: #000000; stroke-width: 0.8"/>
      </g>
     </g>
     <g id="text_3">
      <!-- 40 -->
      <g transform="translate(142.854792 287.910437) scale(0.1 -0.1)">
       <defs>
        <path id="DejaVuSans-34" d="M 2419 4116 
L 825 1625 
L 2419 1625 
L 2419 4116 
z
M 2253 4666 
L 3047 4666 
L 3047 1625 
L 3713 1625 
L 3713 1100 
L 3047 1100 
L 3047 0 
L 2419 0 
L 2419 1100 
L 313 1100 
L 313 1709 
L 2253 4666 
z
" transform="scale(0.015625)"/>
       </defs>
       <use xlink:href="#DejaVuSans-34"/>
       <use xlink:href="#DejaVuSans-30" x="63.623047"/>
      </g>
     </g>
    </g>
    <g id="xtick_4">
     <g id="line2d_4">
      <g>
       <use xlink:href="#m14028f53f8" x="200.343992" y="273.312" style="stroke: #000000; stroke-width: 0.8"/>
      </g>
     </g>
     <g id="text_4">
      <!-- 60 -->
      <g transform="translate(193.981492 287.910437) scale(0.1 -0.1)">
       <defs>
        <path id="DejaVuSans-36" d="M 2113 2584 
Q 1688 2584 1439 2293 
Q 1191 2003 1191 1497 
Q 1191 994 1439 701 
Q 1688 409 2113 409 
Q 2538 409 2786 701 
Q 3034 994 3034 1497 
Q 3034 2003 2786 2293 
Q 2538 2584 2113 2584 
z
M 3366 4563 
L 3366 3988 
Q 3128 4100 2886 4159 
Q 2644 4219 2406 4219 
Q 1781 4219 1451 3797 
Q 1122 3375 1075 2522 
Q 1259 2794 1537 2939 
Q 1816 3084 2150 3084 
Q 2853 3084 3261 2657 
Q 3669 2231 3669 1497 
Q 3669 778 3244 343 
Q 2819 -91 2113 -91 
Q 1303 -91 875 529 
Q 447 1150 447 2328 
Q 447 3434 972 4092 
Q 1497 4750 2381 4750 
Q 2619 4750 2861 4703 
Q 3103 4656 3366 4563 
z
" transform="scale(0.015625)"/>
       </defs>
       <use xlink:href="#DejaVuSans-36"/>
       <use xlink:href="#DejaVuSans-30" x="63.623047"/>
      </g>
     </g>
    </g>
    <g id="xtick_5">
     <g id="line2d_5">
      <g>
       <use xlink:href="#m14028f53f8" x="251.470693" y="273.312" style="stroke: #000000; stroke-width: 0.8"/>
      </g>
     </g>
     <g id="text_5">
      <!-- 80 -->
      <g transform="translate(245.108193 287.910437) scale(0.1 -0.1)">
       <defs>
        <path id="DejaVuSans-38" d="M 2034 2216 
Q 1584 2216 1326 1975 
Q 1069 1734 1069 1313 
Q 1069 891 1326 650 
Q 1584 409 2034 409 
Q 2484 409 2743 651 
Q 3003 894 3003 1313 
Q 3003 1734 2745 1975 
Q 2488 2216 2034 2216 
z
M 1403 2484 
Q 997 2584 770 2862 
Q 544 3141 544 3541 
Q 544 4100 942 4425 
Q 1341 4750 2034 4750 
Q 2731 4750 3128 4425 
Q 3525 4100 3525 3541 
Q 3525 3141 3298 2862 
Q 3072 2584 2669 2484 
Q 3125 2378 3379 2068 
Q 3634 1759 3634 1313 
Q 3634 634 3220 271 
Q 2806 -91 2034 -91 
Q 1263 -91 848 271 
Q 434 634 434 1313 
Q 434 1759 690 2068 
Q 947 2378 1403 2484 
z
M 1172 3481 
Q 1172 3119 1398 2916 
Q 1625 2713 2034 2713 
Q 2441 2713 2670 2916 
Q 2900 3119 2900 3481 
Q 2900 3844 2670 4047 
Q 2441 4250 2034 4250 
Q 1625 4250 1398 4047 
Q 1172 3844 1172 3481 
z
" transform="scale(0.015625)"/>
       </defs>
       <use xlink:href="#DejaVuSans-38"/>
       <use xlink:href="#DejaVuSans-30" x="63.623047"/>
      </g>
     </g>
    </g>
    <g id="xtick_6">
     <g id="line2d_6">
      <g>
       <use xlink:href="#m14028f53f8" x="302.597393" y="273.312" style="stroke: #000000; stroke-width: 0.8"/>
      </g>
     </g>
     <g id="text_6">
      <!-- 100 -->
      <g transform="translate(293.053643 287.910437) scale(0.1 -0.1)">
       <defs>
        <path id="DejaVuSans-31" d="M 794 531 
L 1825 531 
L 1825 4091 
L 703 3866 
L 703 4441 
L 1819 4666 
L 2450 4666 
L 2450 531 
L 3481 531 
L 3481 0 
L 794 0 
L 794 531 
z
" transform="scale(0.015625)"/>
       </defs>
       <use xlink:href="#DejaVuSans-31"/>
       <use xlink:href="#DejaVuSans-30" x="63.623047"/>
       <use xlink:href="#DejaVuSans-30" x="127.246094"/>
      </g>
     </g>
    </g>
    <g id="xtick_7">
     <g id="line2d_7">
      <g>
       <use xlink:href="#m14028f53f8" x="353.724093" y="273.312" style="stroke: #000000; stroke-width: 0.8"/>
      </g>
     </g>
     <g id="text_7">
      <!-- 120 -->
      <g transform="translate(344.180343 287.910437) scale(0.1 -0.1)">
       <use xlink:href="#DejaVuSans-31"/>
       <use xlink:href="#DejaVuSans-32" x="63.623047"/>
       <use xlink:href="#DejaVuSans-30" x="127.246094"/>
      </g>
     </g>
    </g>
   </g>
   <g id="matplotlib.axis_2">
    <g id="ytick_1">
     <g id="line2d_8">
      <defs>
       <path id="mb32f6d88fc" d="M 0 0 
L -3.5 0 
" style="stroke: #000000; stroke-width: 0.8"/>
      </defs>
      <g>
       <use xlink:href="#mb32f6d88fc" x="33.2875" y="236.530296" style="stroke: #000000; stroke-width: 0.8"/>
      </g>
     </g>
     <g id="text_8">
      <!-- 40 -->
      <g transform="translate(13.5625 240.329515) scale(0.1 -0.1)">
       <use xlink:href="#DejaVuSans-34"/>
       <use xlink:href="#DejaVuSans-30" x="63.623047"/>
      </g>
     </g>
    </g>
    <g id="ytick_2">
     <g id="line2d_9">
      <g>
       <use xlink:href="#mb32f6d88fc" x="33.2875" y="199.501726" style="stroke: #000000; stroke-width: 0.8"/>
      </g>
     </g>
     <g id="text_9">
      <!-- 50 -->
      <g transform="translate(13.5625 203.300945) scale(0.1 -0.1)">
       <defs>
        <path id="DejaVuSans-35" d="M 691 4666 
L 3169 4666 
L 3169 4134 
L 1269 4134 
L 1269 2991 
Q 1406 3038 1543 3061 
Q 1681 3084 1819 3084 
Q 2600 3084 3056 2656 
Q 3513 2228 3513 1497 
Q 3513 744 3044 326 
Q 2575 -91 1722 -91 
Q 1428 -91 1123 -41 
Q 819 9 494 109 
L 494 744 
Q 775 591 1075 516 
Q 1375 441 1709 441 
Q 2250 441 2565 725 
Q 2881 1009 2881 1497 
Q 2881 1984 2565 2268 
Q 2250 2553 1709 2553 
Q 1456 2553 1204 2497 
Q 953 2441 691 2322 
L 691 4666 
z
" transform="scale(0.015625)"/>
       </defs>
       <use xlink:href="#DejaVuSans-35"/>
       <use xlink:href="#DejaVuSans-30" x="63.623047"/>
      </g>
     </g>
    </g>
    <g id="ytick_3">
     <g id="line2d_10">
      <g>
       <use xlink:href="#mb32f6d88fc" x="33.2875" y="162.473156" style="stroke: #000000; stroke-width: 0.8"/>
      </g>
     </g>
     <g id="text_10">
      <!-- 60 -->
      <g transform="translate(13.5625 166.272375) scale(0.1 -0.1)">
       <use xlink:href="#DejaVuSans-36"/>
       <use xlink:href="#DejaVuSans-30" x="63.623047"/>
      </g>
     </g>
    </g>
    <g id="ytick_4">
     <g id="line2d_11">
      <g>
       <use xlink:href="#mb32f6d88fc" x="33.2875" y="125.444586" style="stroke: #000000; stroke-width: 0.8"/>
      </g>
     </g>
     <g id="text_11">
      <!-- 70 -->
      <g transform="translate(13.5625 129.243805) scale(0.1 -0.1)">
       <defs>
        <path id="DejaVuSans-37" d="M 525 4666 
L 3525 4666 
L 3525 4397 
L 1831 0 
L 1172 0 
L 2766 4134 
L 525 4134 
L 525 4666 
z
" transform="scale(0.015625)"/>
       </defs>
       <use xlink:href="#DejaVuSans-37"/>
       <use xlink:href="#DejaVuSans-30" x="63.623047"/>
      </g>
     </g>
    </g>
    <g id="ytick_5">
     <g id="line2d_12">
      <g>
       <use xlink:href="#mb32f6d88fc" x="33.2875" y="88.416016" style="stroke: #000000; stroke-width: 0.8"/>
      </g>
     </g>
     <g id="text_12">
      <!-- 80 -->
      <g transform="translate(13.5625 92.215235) scale(0.1 -0.1)">
       <use xlink:href="#DejaVuSans-38"/>
       <use xlink:href="#DejaVuSans-30" x="63.623047"/>
      </g>
     </g>
    </g>
    <g id="ytick_6">
     <g id="line2d_13">
      <g>
       <use xlink:href="#mb32f6d88fc" x="33.2875" y="51.387446" style="stroke: #000000; stroke-width: 0.8"/>
      </g>
     </g>
     <g id="text_13">
      <!-- 90 -->
      <g transform="translate(13.5625 55.186665) scale(0.1 -0.1)">
       <defs>
        <path id="DejaVuSans-39" d="M 703 97 
L 703 672 
Q 941 559 1184 500 
Q 1428 441 1663 441 
Q 2288 441 2617 861 
Q 2947 1281 2994 2138 
Q 2813 1869 2534 1725 
Q 2256 1581 1919 1581 
Q 1219 1581 811 2004 
Q 403 2428 403 3163 
Q 403 3881 828 4315 
Q 1253 4750 1959 4750 
Q 2769 4750 3195 4129 
Q 3622 3509 3622 2328 
Q 3622 1225 3098 567 
Q 2575 -91 1691 -91 
Q 1453 -91 1209 -44 
Q 966 3 703 97 
z
M 1959 2075 
Q 2384 2075 2632 2365 
Q 2881 2656 2881 3163 
Q 2881 3666 2632 3958 
Q 2384 4250 1959 4250 
Q 1534 4250 1286 3958 
Q 1038 3666 1038 3163 
Q 1038 2656 1286 2365 
Q 1534 2075 1959 2075 
z
" transform="scale(0.015625)"/>
       </defs>
       <use xlink:href="#DejaVuSans-39"/>
       <use xlink:href="#DejaVuSans-30" x="63.623047"/>
      </g>
     </g>
    </g>
    <g id="ytick_7">
     <g id="line2d_14">
      <g>
       <use xlink:href="#mb32f6d88fc" x="33.2875" y="14.358876" style="stroke: #000000; stroke-width: 0.8"/>
      </g>
     </g>
     <g id="text_14">
      <!-- 100 -->
      <g transform="translate(7.2 18.158095) scale(0.1 -0.1)">
       <use xlink:href="#DejaVuSans-31"/>
       <use xlink:href="#DejaVuSans-30" x="63.623047"/>
       <use xlink:href="#DejaVuSans-30" x="127.246094"/>
      </g>
     </g>
    </g>
   </g>
   <g id="line2d_15">
    <defs>
     <path id="m103e4391d0" d="M 0 3 
C 0.795609 3 1.55874 2.683901 2.12132 2.12132 
C 2.683901 1.55874 3 0.795609 3 0 
C 3 -0.795609 2.683901 -1.55874 2.12132 -2.12132 
C 1.55874 -2.683901 0.795609 -3 0 -3 
C -0.795609 -3 -1.55874 -2.683901 -2.12132 -2.12132 
C -2.683901 -1.55874 -3 -0.795609 -3 0 
C -3 0.795609 -2.683901 1.55874 -2.12132 2.12132 
C -1.55874 2.683901 -0.795609 3 0 3 
z
" style="stroke: #0000ff"/>
    </defs>
    <g clip-path="url(#p469a27ce6f)">
     <use xlink:href="#m103e4391d0" x="49.520227" y="261.216" style="fill: #ffffff; stroke: #0000ff"/>
     <use xlink:href="#m103e4391d0" x="52.076562" y="90.884578" style="fill: #ffffff; stroke: #0000ff"/>
     <use xlink:href="#m103e4391d0" x="54.632897" y="88.416016" style="fill: #ffffff; stroke: #0000ff"/>
     <use xlink:href="#m103e4391d0" x="57.189232" y="120.507462" style="fill: #ffffff; stroke: #0000ff"/>
     <use xlink:href="#m103e4391d0" x="59.745567" y="24.233152" style="fill: #ffffff; stroke: #0000ff"/>
     <use xlink:href="#m103e4391d0" x="62.301902" y="29.170304" style="fill: #ffffff; stroke: #0000ff"/>
     <use xlink:href="#m103e4391d0" x="64.858237" y="85.947454" style="fill: #ffffff; stroke: #0000ff"/>
     <use xlink:href="#m103e4391d0" x="67.414572" y="24.233152" style="fill: #ffffff; stroke: #0000ff"/>
     <use xlink:href="#m103e4391d0" x="69.970907" y="29.170304" style="fill: #ffffff; stroke: #0000ff"/>
     <use xlink:href="#m103e4391d0" x="72.527242" y="21.76459" style="fill: #ffffff; stroke: #0000ff"/>
     <use xlink:href="#m103e4391d0" x="75.083577" y="21.76459" style="fill: #ffffff; stroke: #0000ff"/>
     <use xlink:href="#m103e4391d0" x="77.639912" y="21.76459" style="fill: #ffffff; stroke: #0000ff"/>
     <use xlink:href="#m103e4391d0" x="80.196247" y="24.233152" style="fill: #ffffff; stroke: #0000ff"/>
     <use xlink:href="#m103e4391d0" x="82.752582" y="24.233152" style="fill: #ffffff; stroke: #0000ff"/>
     <use xlink:href="#m103e4391d0" x="85.308917" y="21.76459" style="fill: #ffffff; stroke: #0000ff"/>
     <use xlink:href="#m103e4391d0" x="87.865252" y="21.76459" style="fill: #ffffff; stroke: #0000ff"/>
     <use xlink:href="#m103e4391d0" x="90.421587" y="24.233152" style="fill: #ffffff; stroke: #0000ff"/>
     <use xlink:href="#m103e4391d0" x="92.977922" y="24.233152" style="fill: #ffffff; stroke: #0000ff"/>
     <use xlink:href="#m103e4391d0" x="95.534257" y="21.76459" style="fill: #ffffff; stroke: #0000ff"/>
     <use xlink:href="#m103e4391d0" x="98.090592" y="24.233152" style="fill: #ffffff; stroke: #0000ff"/>
     <use xlink:href="#m103e4391d0" x="100.646927" y="24.233152" style="fill: #ffffff; stroke: #0000ff"/>
     <use xlink:href="#m103e4391d0" x="103.203262" y="21.76459" style="fill: #ffffff; stroke: #0000ff"/>
     <use xlink:href="#m103e4391d0" x="105.759597" y="21.76459" style="fill: #ffffff; stroke: #0000ff"/>
     <use xlink:href="#m103e4391d0" x="108.315932" y="21.76459" style="fill: #ffffff; stroke: #0000ff"/>
     <use xlink:href="#m103e4391d0" x="110.872267" y="21.76459" style="fill: #ffffff; stroke: #0000ff"/>
     <use xlink:href="#m103e4391d0" x="113.428602" y="21.76459" style="fill: #ffffff; stroke: #0000ff"/>
     <use xlink:href="#m103e4391d0" x="115.984937" y="24.233152" style="fill: #ffffff; stroke: #0000ff"/>
     <use xlink:href="#m103e4391d0" x="118.541272" y="21.76459" style="fill: #ffffff; stroke: #0000ff"/>
     <use xlink:href="#m103e4391d0" x="121.097607" y="24.233152" style="fill: #ffffff; stroke: #0000ff"/>
     <use xlink:href="#m103e4391d0" x="123.653942" y="21.76459" style="fill: #ffffff; stroke: #0000ff"/>
     <use xlink:href="#m103e4391d0" x="126.210277" y="24.233152" style="fill: #ffffff; stroke: #0000ff"/>
     <use xlink:href="#m103e4391d0" x="128.766612" y="21.76459" style="fill: #ffffff; stroke: #0000ff"/>
     <use xlink:href="#m103e4391d0" x="131.322947" y="24.233152" style="fill: #ffffff; stroke: #0000ff"/>
     <use xlink:href="#m103e4391d0" x="133.879282" y="21.76459" style="fill: #ffffff; stroke: #0000ff"/>
     <use xlink:href="#m103e4391d0" x="136.435617" y="21.76459" style="fill: #ffffff; stroke: #0000ff"/>
     <use xlink:href="#m103e4391d0" x="138.991952" y="24.233152" style="fill: #ffffff; stroke: #0000ff"/>
     <use xlink:href="#m103e4391d0" x="141.548287" y="21.76459" style="fill: #ffffff; stroke: #0000ff"/>
     <use xlink:href="#m103e4391d0" x="144.104622" y="21.76459" style="fill: #ffffff; stroke: #0000ff"/>
     <use xlink:href="#m103e4391d0" x="146.660957" y="21.76459" style="fill: #ffffff; stroke: #0000ff"/>
     <use xlink:href="#m103e4391d0" x="149.217292" y="21.76459" style="fill: #ffffff; stroke: #0000ff"/>
     <use xlink:href="#m103e4391d0" x="151.773627" y="24.233152" style="fill: #ffffff; stroke: #0000ff"/>
     <use xlink:href="#m103e4391d0" x="154.329962" y="24.233152" style="fill: #ffffff; stroke: #0000ff"/>
     <use xlink:href="#m103e4391d0" x="156.886297" y="21.76459" style="fill: #ffffff; stroke: #0000ff"/>
     <use xlink:href="#m103e4391d0" x="159.442632" y="24.233152" style="fill: #ffffff; stroke: #0000ff"/>
     <use xlink:href="#m103e4391d0" x="161.998967" y="21.76459" style="fill: #ffffff; stroke: #0000ff"/>
     <use xlink:href="#m103e4391d0" x="164.555302" y="24.233152" style="fill: #ffffff; stroke: #0000ff"/>
     <use xlink:href="#m103e4391d0" x="167.111637" y="21.76459" style="fill: #ffffff; stroke: #0000ff"/>
     <use xlink:href="#m103e4391d0" x="169.667972" y="21.76459" style="fill: #ffffff; stroke: #0000ff"/>
     <use xlink:href="#m103e4391d0" x="172.224307" y="21.76459" style="fill: #ffffff; stroke: #0000ff"/>
     <use xlink:href="#m103e4391d0" x="174.780642" y="21.76459" style="fill: #ffffff; stroke: #0000ff"/>
     <use xlink:href="#m103e4391d0" x="177.336977" y="21.76459" style="fill: #ffffff; stroke: #0000ff"/>
     <use xlink:href="#m103e4391d0" x="179.893312" y="24.233152" style="fill: #ffffff; stroke: #0000ff"/>
     <use xlink:href="#m103e4391d0" x="182.449647" y="24.233152" style="fill: #ffffff; stroke: #0000ff"/>
     <use xlink:href="#m103e4391d0" x="185.005982" y="21.76459" style="fill: #ffffff; stroke: #0000ff"/>
     <use xlink:href="#m103e4391d0" x="187.562317" y="21.76459" style="fill: #ffffff; stroke: #0000ff"/>
     <use xlink:href="#m103e4391d0" x="190.118652" y="21.76459" style="fill: #ffffff; stroke: #0000ff"/>
     <use xlink:href="#m103e4391d0" x="192.674987" y="24.233152" style="fill: #ffffff; stroke: #0000ff"/>
     <use xlink:href="#m103e4391d0" x="195.231322" y="24.233152" style="fill: #ffffff; stroke: #0000ff"/>
     <use xlink:href="#m103e4391d0" x="197.787657" y="21.76459" style="fill: #ffffff; stroke: #0000ff"/>
     <use xlink:href="#m103e4391d0" x="200.343992" y="24.233152" style="fill: #ffffff; stroke: #0000ff"/>
     <use xlink:href="#m103e4391d0" x="202.900327" y="21.76459" style="fill: #ffffff; stroke: #0000ff"/>
     <use xlink:href="#m103e4391d0" x="205.456662" y="21.76459" style="fill: #ffffff; stroke: #0000ff"/>
     <use xlink:href="#m103e4391d0" x="208.012997" y="21.76459" style="fill: #ffffff; stroke: #0000ff"/>
     <use xlink:href="#m103e4391d0" x="210.569332" y="24.233152" style="fill: #ffffff; stroke: #0000ff"/>
     <use xlink:href="#m103e4391d0" x="213.125668" y="21.76459" style="fill: #ffffff; stroke: #0000ff"/>
     <use xlink:href="#m103e4391d0" x="215.682003" y="21.76459" style="fill: #ffffff; stroke: #0000ff"/>
     <use xlink:href="#m103e4391d0" x="218.238338" y="24.233152" style="fill: #ffffff; stroke: #0000ff"/>
     <use xlink:href="#m103e4391d0" x="220.794673" y="21.76459" style="fill: #ffffff; stroke: #0000ff"/>
     <use xlink:href="#m103e4391d0" x="223.351008" y="24.233152" style="fill: #ffffff; stroke: #0000ff"/>
     <use xlink:href="#m103e4391d0" x="225.907343" y="19.296" style="fill: #ffffff; stroke: #0000ff"/>
     <use xlink:href="#m103e4391d0" x="228.463678" y="21.76459" style="fill: #ffffff; stroke: #0000ff"/>
     <use xlink:href="#m103e4391d0" x="231.020013" y="21.76459" style="fill: #ffffff; stroke: #0000ff"/>
     <use xlink:href="#m103e4391d0" x="233.576348" y="24.233152" style="fill: #ffffff; stroke: #0000ff"/>
     <use xlink:href="#m103e4391d0" x="236.132683" y="24.233152" style="fill: #ffffff; stroke: #0000ff"/>
     <use xlink:href="#m103e4391d0" x="238.689018" y="24.233152" style="fill: #ffffff; stroke: #0000ff"/>
     <use xlink:href="#m103e4391d0" x="241.245353" y="21.76459" style="fill: #ffffff; stroke: #0000ff"/>
     <use xlink:href="#m103e4391d0" x="243.801688" y="21.76459" style="fill: #ffffff; stroke: #0000ff"/>
     <use xlink:href="#m103e4391d0" x="246.358023" y="21.76459" style="fill: #ffffff; stroke: #0000ff"/>
     <use xlink:href="#m103e4391d0" x="248.914358" y="21.76459" style="fill: #ffffff; stroke: #0000ff"/>
     <use xlink:href="#m103e4391d0" x="251.470693" y="21.76459" style="fill: #ffffff; stroke: #0000ff"/>
     <use xlink:href="#m103e4391d0" x="254.027028" y="21.76459" style="fill: #ffffff; stroke: #0000ff"/>
     <use xlink:href="#m103e4391d0" x="256.583363" y="24.233152" style="fill: #ffffff; stroke: #0000ff"/>
     <use xlink:href="#m103e4391d0" x="259.139698" y="21.76459" style="fill: #ffffff; stroke: #0000ff"/>
     <use xlink:href="#m103e4391d0" x="261.696033" y="21.76459" style="fill: #ffffff; stroke: #0000ff"/>
     <use xlink:href="#m103e4391d0" x="264.252368" y="21.76459" style="fill: #ffffff; stroke: #0000ff"/>
     <use xlink:href="#m103e4391d0" x="266.808703" y="21.76459" style="fill: #ffffff; stroke: #0000ff"/>
     <use xlink:href="#m103e4391d0" x="269.365038" y="21.76459" style="fill: #ffffff; stroke: #0000ff"/>
     <use xlink:href="#m103e4391d0" x="271.921373" y="21.76459" style="fill: #ffffff; stroke: #0000ff"/>
     <use xlink:href="#m103e4391d0" x="274.477708" y="21.76459" style="fill: #ffffff; stroke: #0000ff"/>
     <use xlink:href="#m103e4391d0" x="277.034043" y="24.233152" style="fill: #ffffff; stroke: #0000ff"/>
     <use xlink:href="#m103e4391d0" x="279.590378" y="21.76459" style="fill: #ffffff; stroke: #0000ff"/>
     <use xlink:href="#m103e4391d0" x="282.146713" y="24.233152" style="fill: #ffffff; stroke: #0000ff"/>
     <use xlink:href="#m103e4391d0" x="284.703048" y="21.76459" style="fill: #ffffff; stroke: #0000ff"/>
     <use xlink:href="#m103e4391d0" x="287.259383" y="21.76459" style="fill: #ffffff; stroke: #0000ff"/>
     <use xlink:href="#m103e4391d0" x="289.815718" y="24.233152" style="fill: #ffffff; stroke: #0000ff"/>
     <use xlink:href="#m103e4391d0" x="292.372053" y="21.76459" style="fill: #ffffff; stroke: #0000ff"/>
     <use xlink:href="#m103e4391d0" x="294.928388" y="21.76459" style="fill: #ffffff; stroke: #0000ff"/>
     <use xlink:href="#m103e4391d0" x="297.484723" y="21.76459" style="fill: #ffffff; stroke: #0000ff"/>
     <use xlink:href="#m103e4391d0" x="300.041058" y="21.76459" style="fill: #ffffff; stroke: #0000ff"/>
     <use xlink:href="#m103e4391d0" x="302.597393" y="21.76459" style="fill: #ffffff; stroke: #0000ff"/>
     <use xlink:href="#m103e4391d0" x="305.153728" y="24.233152" style="fill: #ffffff; stroke: #0000ff"/>
     <use xlink:href="#m103e4391d0" x="307.710063" y="21.76459" style="fill: #ffffff; stroke: #0000ff"/>
     <use xlink:href="#m103e4391d0" x="310.266398" y="19.296" style="fill: #ffffff; stroke: #0000ff"/>
     <use xlink:href="#m103e4391d0" x="312.822733" y="21.76459" style="fill: #ffffff; stroke: #0000ff"/>
     <use xlink:href="#m103e4391d0" x="315.379068" y="21.76459" style="fill: #ffffff; stroke: #0000ff"/>
     <use xlink:href="#m103e4391d0" x="317.935403" y="21.76459" style="fill: #ffffff; stroke: #0000ff"/>
     <use xlink:href="#m103e4391d0" x="320.491738" y="21.76459" style="fill: #ffffff; stroke: #0000ff"/>
     <use xlink:href="#m103e4391d0" x="323.048073" y="21.76459" style="fill: #ffffff; stroke: #0000ff"/>
     <use xlink:href="#m103e4391d0" x="325.604408" y="21.76459" style="fill: #ffffff; stroke: #0000ff"/>
     <use xlink:href="#m103e4391d0" x="328.160743" y="21.76459" style="fill: #ffffff; stroke: #0000ff"/>
     <use xlink:href="#m103e4391d0" x="330.717078" y="21.76459" style="fill: #ffffff; stroke: #0000ff"/>
     <use xlink:href="#m103e4391d0" x="333.273413" y="21.76459" style="fill: #ffffff; stroke: #0000ff"/>
     <use xlink:href="#m103e4391d0" x="335.829748" y="21.76459" style="fill: #ffffff; stroke: #0000ff"/>
     <use xlink:href="#m103e4391d0" x="338.386083" y="21.76459" style="fill: #ffffff; stroke: #0000ff"/>
     <use xlink:href="#m103e4391d0" x="340.942418" y="24.233152" style="fill: #ffffff; stroke: #0000ff"/>
     <use xlink:href="#m103e4391d0" x="343.498753" y="21.76459" style="fill: #ffffff; stroke: #0000ff"/>
     <use xlink:href="#m103e4391d0" x="346.055088" y="21.76459" style="fill: #ffffff; stroke: #0000ff"/>
     <use xlink:href="#m103e4391d0" x="348.611423" y="21.76459" style="fill: #ffffff; stroke: #0000ff"/>
     <use xlink:href="#m103e4391d0" x="351.167758" y="21.76459" style="fill: #ffffff; stroke: #0000ff"/>
     <use xlink:href="#m103e4391d0" x="353.724093" y="19.296" style="fill: #ffffff; stroke: #0000ff"/>
     <use xlink:href="#m103e4391d0" x="356.280428" y="21.76459" style="fill: #ffffff; stroke: #0000ff"/>
     <use xlink:href="#m103e4391d0" x="358.836763" y="24.233152" style="fill: #ffffff; stroke: #0000ff"/>
     <use xlink:href="#m103e4391d0" x="361.393098" y="21.76459" style="fill: #ffffff; stroke: #0000ff"/>
     <use xlink:href="#m103e4391d0" x="363.949433" y="21.76459" style="fill: #ffffff; stroke: #0000ff"/>
     <use xlink:href="#m103e4391d0" x="366.505768" y="21.76459" style="fill: #ffffff; stroke: #0000ff"/>
     <use xlink:href="#m103e4391d0" x="369.062103" y="21.76459" style="fill: #ffffff; stroke: #0000ff"/>
     <use xlink:href="#m103e4391d0" x="371.618438" y="21.76459" style="fill: #ffffff; stroke: #0000ff"/>
     <use xlink:href="#m103e4391d0" x="374.174773" y="24.233152" style="fill: #ffffff; stroke: #0000ff"/>
    </g>
   </g>
   <g id="patch_3">
    <path d="M 33.2875 273.312 
L 33.2875 7.2 
" style="fill: none; stroke: #000000; stroke-width: 0.8; stroke-linejoin: miter; stroke-linecap: square"/>
   </g>
   <g id="patch_4">
    <path d="M 390.4075 273.312 
L 390.4075 7.2 
" style="fill: none; stroke: #000000; stroke-width: 0.8; stroke-linejoin: miter; stroke-linecap: square"/>
   </g>
   <g id="patch_5">
    <path d="M 33.2875 273.312 
L 390.4075 273.312 
" style="fill: none; stroke: #000000; stroke-width: 0.8; stroke-linejoin: miter; stroke-linecap: square"/>
   </g>
   <g id="patch_6">
    <path d="M 33.2875 7.2 
L 390.4075 7.2 
" style="fill: none; stroke: #000000; stroke-width: 0.8; stroke-linejoin: miter; stroke-linecap: square"/>
   </g>
  </g>
 </g>
 <defs>
  <clipPath id="p469a27ce6f">
   <rect x="33.2875" y="7.2" width="357.12" height="266.112"/>
  </clipPath>
 </defs>
</svg>
